<svg width="61" height="39" viewBox="0 0 61 39" fill="none" xmlns="http://www.w3.org/2000/svg">
<path d="M23.8307 38.4832H2.65684C1.92332 38.4832 1.29714 38.2238 0.778304 37.7049C0.25947 37.1861 5.53102e-05 36.5599 6.10353e-05 35.8264C6.10353e-05 35.075 0.259478 34.4399 0.778312 33.921C1.29715 33.4022 1.92332 33.1428 2.65684 33.1428H23.8307C24.5642 33.1428 25.1904 33.4022 25.7092 33.9211C26.2281 34.4399 26.4875 35.075 26.4875 35.8264C26.4875 36.56 26.2281 37.1861 25.7092 37.705C25.1904 38.2238 24.5642 38.4832 23.8307 38.4832V38.4832ZM23.8307 5.31446H2.65684C1.92332 5.31446 1.29714 5.05504 0.778304 4.53621C0.25947 4.01737 5.53102e-05 3.3912 6.10353e-05 2.65768C6.67603e-05 1.92416 0.259481 1.29799 0.778304 0.779152C1.29713 0.260318 1.9233 0.000904219 2.65683 0.000909944H23.8307C24.5642 0.000909944 25.1904 0.260327 25.7092 0.779161C26.2281 1.298 26.4875 1.92417 26.4875 2.65769C26.4875 3.39121 26.228 4.01738 25.7092 4.53621C25.1904 5.05505 24.5642 5.31446 23.8307 5.31446ZM23.8307 21.8983H2.65684C1.92332 21.8983 1.29714 21.6389 0.778304 21.12C0.25947 20.6012 5.53102e-05 19.975 6.10353e-05 19.2415C6.67603e-05 18.508 0.259481 17.8773 0.778304 17.3495C1.29713 16.8217 1.9233 16.5578 2.65683 16.5579H23.8307C24.5642 16.5579 25.1904 16.8217 25.7092 17.3495C26.2281 17.8773 26.4875 18.508 26.4875 19.2415C26.4875 19.975 26.228 20.6012 25.7092 21.12C25.1904 21.6388 24.5642 21.8983 23.8307 21.8983V21.8983ZM49.5398 38.4832H34.7798C34.0463 38.4832 33.4201 38.2238 32.9013 37.7049C32.3825 37.1861 32.123 36.5599 32.123 35.8264V19.2415C32.123 18.508 32.3825 17.8773 32.9013 17.3495C33.4201 16.8218 34.0463 16.5579 34.7798 16.5579H49.5398C51.311 16.5579 52.6886 16.0032 53.6726 14.894C54.6029 13.7669 55.068 12.4519 55.068 10.9491C55.068 10.2513 54.9115 9.45968 54.5984 8.57408C54.2853 7.68849 53.7262 6.92365 52.9212 6.27959C52.1161 5.63552 50.9889 5.31348 49.5397 5.31349H34.7797C34.0462 5.31349 33.42 5.05407 32.9012 4.53524C32.3824 4.0164 32.123 3.39023 32.123 2.65671C32.123 1.92319 32.3824 1.29702 32.9012 0.778182C33.42 0.259348 34.0462 -6.67601e-05 34.7797 -6.10351e-05H49.5397C51.9192 -6.10351e-05 53.914 0.532191 55.5242 1.5967C57.1343 2.6612 58.3464 4.02981 59.1604 5.70253C59.9743 7.37525 60.3813 9.12409 60.3814 10.9491C60.3814 13.7579 59.4779 16.2448 57.671 18.4095C57.4384 18.6779 57.17 18.9463 56.8659 19.2146C58.0288 20.306 58.9054 21.5807 59.4958 23.0388C60.0862 24.4969 60.3814 25.9952 60.3814 27.5338C60.3814 30.3426 59.4779 32.8205 57.671 34.9674C57.2058 35.522 56.6065 36.0632 55.8729 36.591C55.1394 37.1188 54.2494 37.566 53.2027 37.9328C52.1561 38.2996 50.9351 38.4829 49.5396 38.483L49.5398 38.4832ZM49.5398 33.1427C51.311 33.1427 52.6886 32.5881 53.6726 31.4788C54.6029 30.3517 55.068 29.0367 55.068 27.5339C55.068 26.8362 54.9115 26.0445 54.5984 25.1589C54.2853 24.2733 53.7262 23.5085 52.9212 22.8644C52.1161 22.2203 50.9889 21.8983 49.5397 21.8983H37.4365V33.1427H49.5397L49.5398 33.1427Z" fill="white"/>
</svg>
